# xmcd
#
# Track frame offsets:
#	150
#	19069
#	32784
#	49872
#	65936
#	81556
#	95482
#	110569
#	127393
#	142452
#	153045
#	163688
#	177834
#	190752
#	202753
#	218686
#	232176
#	246841
#
# Disc length: 3497 seconds
#
# Revision: 1
# Processed by: cddbd v1.4PL0 Copyright (c) Steve Scherf et al.
# Submitted via: audiograbber 1.81.02
#
DISCID=0f0da712
DTITLE=Clive Bruce - Wil Jy Weer Dans?
DYEAR=2003
DGENRE=
TTITLE0=Wil Jy Weer Dans?
TTITLE1=Bluest Heartache Of The Year
TTITLE2=Die Soentjie Song (Ek Is Verlief Op Jou)
TTITLE3=Sunflower
TTITLE4=Nog Net Een Kans
TTITLE5=Net Vir Jou
TTITLE6=Yellow River
TTITLE7=If Tomorrow Never Comes
TTITLE8=If You've Got Nothing On Tonight
TTITLE9=Hillbilly Rock, Hillbily Roll
TTITLE10=Stolen Love
TTITLE11='Till I Can Make It On My Own
TTITLE12=So Verlief Op Jou (Living In A World Of Love)
TTITLE13=Walking Shoes
TTITLE14=Little Yellow Aeroplane
TTITLE15=I Hope You're Feeling Me (Like I'm Feeling You)
TTITLE16=Meisie Van My Droom
TTITLE17=Little Boy's Prayer
EXTD=
EXTT0=
EXTT1=
EXTT2=
EXTT3=
EXTT4=
EXTT5=
EXTT6=
EXTT7=
EXTT8=
EXTT9=
EXTT10=
EXTT11=
EXTT12=
EXTT13=
EXTT14=
EXTT15=
EXTT16=
EXTT17=
PLAYORDER=
